<mxfile host="app.diagrams.net" agent="Mozilla/5.0 (Windows NT 10.0; Win64; x64) AppleWebKit/537.36 (KHTML, like Gecko) Chrome/131.0.0.0 Safari/537.36" version="26.0.10">
  <diagram name="Page-1" id="uCi5lE_PdIlUcMGNMZd9">
    <mxGraphModel dx="1877" dy="557" grid="1" gridSize="10" guides="1" tooltips="1" connect="1" arrows="1" fold="1" page="1" pageScale="1" pageWidth="827" pageHeight="1169" math="0" shadow="0">
      <root>
        <mxCell id="0" />
        <mxCell id="1" parent="0" />
        <mxCell id="jRtm2Z2c-2KP_GqU3nE0-47" style="edgeStyle=orthogonalEdgeStyle;rounded=0;orthogonalLoop=1;jettySize=auto;html=1;entryX=0.5;entryY=0;entryDx=0;entryDy=0;" edge="1" parent="1" source="jRtm2Z2c-2KP_GqU3nE0-1" target="jRtm2Z2c-2KP_GqU3nE0-2">
          <mxGeometry relative="1" as="geometry" />
        </mxCell>
        <mxCell id="jRtm2Z2c-2KP_GqU3nE0-1" value="User request" style="rounded=0;whiteSpace=wrap;html=1;" vertex="1" parent="1">
          <mxGeometry x="460" y="10" width="120" height="60" as="geometry" />
        </mxCell>
        <mxCell id="jRtm2Z2c-2KP_GqU3nE0-36" style="edgeStyle=orthogonalEdgeStyle;rounded=0;orthogonalLoop=1;jettySize=auto;html=1;entryX=0.5;entryY=0;entryDx=0;entryDy=0;" edge="1" parent="1" source="jRtm2Z2c-2KP_GqU3nE0-2" target="jRtm2Z2c-2KP_GqU3nE0-28">
          <mxGeometry relative="1" as="geometry" />
        </mxCell>
        <mxCell id="jRtm2Z2c-2KP_GqU3nE0-37" style="edgeStyle=orthogonalEdgeStyle;rounded=0;orthogonalLoop=1;jettySize=auto;html=1;exitX=1;exitY=0.5;exitDx=0;exitDy=0;" edge="1" parent="1" source="jRtm2Z2c-2KP_GqU3nE0-2" target="jRtm2Z2c-2KP_GqU3nE0-29">
          <mxGeometry relative="1" as="geometry" />
        </mxCell>
        <mxCell id="jRtm2Z2c-2KP_GqU3nE0-2" value="User exists?" style="rhombus;whiteSpace=wrap;html=1;" vertex="1" parent="1">
          <mxGeometry x="480" y="120" width="80" height="80" as="geometry" />
        </mxCell>
        <mxCell id="jRtm2Z2c-2KP_GqU3nE0-33" style="edgeStyle=orthogonalEdgeStyle;rounded=0;orthogonalLoop=1;jettySize=auto;html=1;entryX=0;entryY=0.5;entryDx=0;entryDy=0;" edge="1" parent="1" source="jRtm2Z2c-2KP_GqU3nE0-5" target="jRtm2Z2c-2KP_GqU3nE0-7">
          <mxGeometry relative="1" as="geometry" />
        </mxCell>
        <mxCell id="jRtm2Z2c-2KP_GqU3nE0-5" value="Add random noise to score" style="rounded=0;whiteSpace=wrap;html=1;" vertex="1" parent="1">
          <mxGeometry x="120" y="555" width="120" height="60" as="geometry" />
        </mxCell>
        <mxCell id="jRtm2Z2c-2KP_GqU3nE0-34" style="edgeStyle=orthogonalEdgeStyle;rounded=0;orthogonalLoop=1;jettySize=auto;html=1;entryX=1;entryY=0.5;entryDx=0;entryDy=0;" edge="1" parent="1" source="jRtm2Z2c-2KP_GqU3nE0-6" target="jRtm2Z2c-2KP_GqU3nE0-7">
          <mxGeometry relative="1" as="geometry" />
        </mxCell>
        <mxCell id="jRtm2Z2c-2KP_GqU3nE0-6" value="Sort by rank" style="rounded=0;whiteSpace=wrap;html=1;" vertex="1" parent="1">
          <mxGeometry x="320" y="555" width="120" height="60" as="geometry" />
        </mxCell>
        <mxCell id="jRtm2Z2c-2KP_GqU3nE0-45" style="edgeStyle=orthogonalEdgeStyle;rounded=0;orthogonalLoop=1;jettySize=auto;html=1;entryX=0;entryY=0.5;entryDx=0;entryDy=0;" edge="1" parent="1" source="jRtm2Z2c-2KP_GqU3nE0-7" target="jRtm2Z2c-2KP_GqU3nE0-44">
          <mxGeometry relative="1" as="geometry">
            <Array as="points">
              <mxPoint x="290" y="980" />
            </Array>
          </mxGeometry>
        </mxCell>
        <mxCell id="jRtm2Z2c-2KP_GqU3nE0-7" value="Select top N" style="rounded=0;whiteSpace=wrap;html=1;" vertex="1" parent="1">
          <mxGeometry x="230" y="690" width="120" height="60" as="geometry" />
        </mxCell>
        <mxCell id="jRtm2Z2c-2KP_GqU3nE0-41" style="edgeStyle=orthogonalEdgeStyle;rounded=0;orthogonalLoop=1;jettySize=auto;html=1;entryX=0;entryY=0.5;entryDx=0;entryDy=0;" edge="1" parent="1" source="jRtm2Z2c-2KP_GqU3nE0-8" target="jRtm2Z2c-2KP_GqU3nE0-10">
          <mxGeometry relative="1" as="geometry" />
        </mxCell>
        <mxCell id="jRtm2Z2c-2KP_GqU3nE0-8" value="Filter by prefered tags" style="rounded=0;whiteSpace=wrap;html=1;" vertex="1" parent="1">
          <mxGeometry x="580" y="655" width="120" height="60" as="geometry" />
        </mxCell>
        <mxCell id="jRtm2Z2c-2KP_GqU3nE0-42" style="edgeStyle=orthogonalEdgeStyle;rounded=0;orthogonalLoop=1;jettySize=auto;html=1;entryX=1;entryY=0.5;entryDx=0;entryDy=0;" edge="1" parent="1" source="jRtm2Z2c-2KP_GqU3nE0-9" target="jRtm2Z2c-2KP_GqU3nE0-10">
          <mxGeometry relative="1" as="geometry" />
        </mxCell>
        <mxCell id="jRtm2Z2c-2KP_GqU3nE0-9" value="Use general cold start recommendations" style="rounded=0;whiteSpace=wrap;html=1;" vertex="1" parent="1">
          <mxGeometry x="760" y="655" width="120" height="60" as="geometry" />
        </mxCell>
        <mxCell id="jRtm2Z2c-2KP_GqU3nE0-46" style="edgeStyle=orthogonalEdgeStyle;rounded=0;orthogonalLoop=1;jettySize=auto;html=1;entryX=1;entryY=0.5;entryDx=0;entryDy=0;" edge="1" parent="1" source="jRtm2Z2c-2KP_GqU3nE0-10" target="jRtm2Z2c-2KP_GqU3nE0-44">
          <mxGeometry relative="1" as="geometry">
            <Array as="points">
              <mxPoint x="730" y="980" />
            </Array>
          </mxGeometry>
        </mxCell>
        <mxCell id="jRtm2Z2c-2KP_GqU3nE0-10" value="Select top N" style="rounded=0;whiteSpace=wrap;html=1;" vertex="1" parent="1">
          <mxGeometry x="670" y="790" width="120" height="60" as="geometry" />
        </mxCell>
        <mxCell id="jRtm2Z2c-2KP_GqU3nE0-40" style="edgeStyle=orthogonalEdgeStyle;rounded=0;orthogonalLoop=1;jettySize=auto;html=1;entryX=0.5;entryY=0;entryDx=0;entryDy=0;" edge="1" parent="1" source="jRtm2Z2c-2KP_GqU3nE0-11" target="jRtm2Z2c-2KP_GqU3nE0-8">
          <mxGeometry relative="1" as="geometry" />
        </mxCell>
        <mxCell id="jRtm2Z2c-2KP_GqU3nE0-11" value="Filter by prefered genres" style="rounded=0;whiteSpace=wrap;html=1;" vertex="1" parent="1">
          <mxGeometry x="580" y="540" width="120" height="60" as="geometry" />
        </mxCell>
        <mxCell id="jRtm2Z2c-2KP_GqU3nE0-38" style="edgeStyle=orthogonalEdgeStyle;rounded=0;orthogonalLoop=1;jettySize=auto;html=1;entryX=0.5;entryY=0;entryDx=0;entryDy=0;" edge="1" parent="1" source="jRtm2Z2c-2KP_GqU3nE0-12" target="jRtm2Z2c-2KP_GqU3nE0-11">
          <mxGeometry relative="1" as="geometry">
            <Array as="points">
              <mxPoint x="640" y="440" />
            </Array>
          </mxGeometry>
        </mxCell>
        <mxCell id="jRtm2Z2c-2KP_GqU3nE0-39" style="edgeStyle=orthogonalEdgeStyle;rounded=0;orthogonalLoop=1;jettySize=auto;html=1;" edge="1" parent="1" source="jRtm2Z2c-2KP_GqU3nE0-12" target="jRtm2Z2c-2KP_GqU3nE0-9">
          <mxGeometry relative="1" as="geometry">
            <Array as="points">
              <mxPoint x="820" y="440" />
            </Array>
          </mxGeometry>
        </mxCell>
        <mxCell id="jRtm2Z2c-2KP_GqU3nE0-12" value="User data available?" style="rhombus;whiteSpace=wrap;html=1;" vertex="1" parent="1">
          <mxGeometry x="700" y="400" width="80" height="80" as="geometry" />
        </mxCell>
        <mxCell id="jRtm2Z2c-2KP_GqU3nE0-31" style="edgeStyle=orthogonalEdgeStyle;rounded=0;orthogonalLoop=1;jettySize=auto;html=1;exitX=1;exitY=0.5;exitDx=0;exitDy=0;" edge="1" parent="1" source="jRtm2Z2c-2KP_GqU3nE0-13" target="jRtm2Z2c-2KP_GqU3nE0-6">
          <mxGeometry relative="1" as="geometry" />
        </mxCell>
        <mxCell id="jRtm2Z2c-2KP_GqU3nE0-32" style="edgeStyle=orthogonalEdgeStyle;rounded=0;orthogonalLoop=1;jettySize=auto;html=1;entryX=0.5;entryY=0;entryDx=0;entryDy=0;" edge="1" parent="1" source="jRtm2Z2c-2KP_GqU3nE0-13" target="jRtm2Z2c-2KP_GqU3nE0-5">
          <mxGeometry relative="1" as="geometry">
            <Array as="points">
              <mxPoint x="180" y="450" />
            </Array>
          </mxGeometry>
        </mxCell>
        <mxCell id="jRtm2Z2c-2KP_GqU3nE0-13" value="Randomize" style="rhombus;whiteSpace=wrap;html=1;" vertex="1" parent="1">
          <mxGeometry x="240" y="410" width="80" height="80" as="geometry" />
        </mxCell>
        <mxCell id="jRtm2Z2c-2KP_GqU3nE0-26" style="edgeStyle=orthogonalEdgeStyle;rounded=0;orthogonalLoop=1;jettySize=auto;html=1;entryX=0.5;entryY=0;entryDx=0;entryDy=0;" edge="1" parent="1" source="jRtm2Z2c-2KP_GqU3nE0-14" target="jRtm2Z2c-2KP_GqU3nE0-15">
          <mxGeometry relative="1" as="geometry" />
        </mxCell>
        <mxCell id="jRtm2Z2c-2KP_GqU3nE0-14" value="Receive feedback" style="rounded=0;whiteSpace=wrap;html=1;" vertex="1" parent="1">
          <mxGeometry x="-210" y="400" width="120" height="60" as="geometry" />
        </mxCell>
        <mxCell id="jRtm2Z2c-2KP_GqU3nE0-27" style="edgeStyle=orthogonalEdgeStyle;rounded=0;orthogonalLoop=1;jettySize=auto;html=1;entryX=0.5;entryY=0;entryDx=0;entryDy=0;" edge="1" parent="1" source="jRtm2Z2c-2KP_GqU3nE0-15" target="jRtm2Z2c-2KP_GqU3nE0-16">
          <mxGeometry relative="1" as="geometry" />
        </mxCell>
        <mxCell id="jRtm2Z2c-2KP_GqU3nE0-15" value="Record rating" style="rounded=0;whiteSpace=wrap;html=1;" vertex="1" parent="1">
          <mxGeometry x="-210" y="525" width="120" height="60" as="geometry" />
        </mxCell>
        <mxCell id="jRtm2Z2c-2KP_GqU3nE0-16" value="Save to feedback store" style="rounded=0;whiteSpace=wrap;html=1;" vertex="1" parent="1">
          <mxGeometry x="-210" y="660" width="120" height="60" as="geometry" />
        </mxCell>
        <mxCell id="jRtm2Z2c-2KP_GqU3nE0-25" style="edgeStyle=orthogonalEdgeStyle;rounded=0;orthogonalLoop=1;jettySize=auto;html=1;entryX=0.5;entryY=0;entryDx=0;entryDy=0;" edge="1" parent="1" source="jRtm2Z2c-2KP_GqU3nE0-17" target="jRtm2Z2c-2KP_GqU3nE0-18">
          <mxGeometry relative="1" as="geometry" />
        </mxCell>
        <mxCell id="jRtm2Z2c-2KP_GqU3nE0-17" value="Load recommendations" style="rounded=0;whiteSpace=wrap;html=1;" vertex="1" parent="1">
          <mxGeometry x="1030" y="110" width="120" height="60" as="geometry" />
        </mxCell>
        <mxCell id="jRtm2Z2c-2KP_GqU3nE0-22" style="edgeStyle=orthogonalEdgeStyle;rounded=0;orthogonalLoop=1;jettySize=auto;html=1;entryX=0.5;entryY=0;entryDx=0;entryDy=0;" edge="1" parent="1" source="jRtm2Z2c-2KP_GqU3nE0-18" target="jRtm2Z2c-2KP_GqU3nE0-19">
          <mxGeometry relative="1" as="geometry" />
        </mxCell>
        <mxCell id="jRtm2Z2c-2KP_GqU3nE0-18" value="Convert user_id to string" style="rounded=0;whiteSpace=wrap;html=1;" vertex="1" parent="1">
          <mxGeometry x="1030" y="235" width="120" height="60" as="geometry" />
        </mxCell>
        <mxCell id="jRtm2Z2c-2KP_GqU3nE0-23" style="edgeStyle=orthogonalEdgeStyle;rounded=0;orthogonalLoop=1;jettySize=auto;html=1;entryX=0.5;entryY=0;entryDx=0;entryDy=0;" edge="1" parent="1" source="jRtm2Z2c-2KP_GqU3nE0-19" target="jRtm2Z2c-2KP_GqU3nE0-20">
          <mxGeometry relative="1" as="geometry" />
        </mxCell>
        <mxCell id="jRtm2Z2c-2KP_GqU3nE0-19" value="Create user indices" style="rounded=0;whiteSpace=wrap;html=1;" vertex="1" parent="1">
          <mxGeometry x="1030" y="370" width="120" height="60" as="geometry" />
        </mxCell>
        <mxCell id="jRtm2Z2c-2KP_GqU3nE0-24" style="edgeStyle=orthogonalEdgeStyle;rounded=0;orthogonalLoop=1;jettySize=auto;html=1;" edge="1" parent="1" source="jRtm2Z2c-2KP_GqU3nE0-20" target="jRtm2Z2c-2KP_GqU3nE0-21">
          <mxGeometry relative="1" as="geometry" />
        </mxCell>
        <mxCell id="jRtm2Z2c-2KP_GqU3nE0-20" value="Initialize feedback store" style="rounded=0;whiteSpace=wrap;html=1;" vertex="1" parent="1">
          <mxGeometry x="1030" y="510" width="120" height="60" as="geometry" />
        </mxCell>
        <mxCell id="jRtm2Z2c-2KP_GqU3nE0-21" value="Load cold start recommendations" style="rounded=0;whiteSpace=wrap;html=1;" vertex="1" parent="1">
          <mxGeometry x="1030" y="650" width="120" height="60" as="geometry" />
        </mxCell>
        <mxCell id="jRtm2Z2c-2KP_GqU3nE0-35" style="edgeStyle=orthogonalEdgeStyle;rounded=0;orthogonalLoop=1;jettySize=auto;html=1;entryX=0.5;entryY=0;entryDx=0;entryDy=0;" edge="1" parent="1" source="jRtm2Z2c-2KP_GqU3nE0-28" target="jRtm2Z2c-2KP_GqU3nE0-13">
          <mxGeometry relative="1" as="geometry" />
        </mxCell>
        <mxCell id="jRtm2Z2c-2KP_GqU3nE0-28" value="Personalised path" style="rounded=0;whiteSpace=wrap;html=1;" vertex="1" parent="1">
          <mxGeometry x="220" y="290" width="120" height="60" as="geometry" />
        </mxCell>
        <mxCell id="jRtm2Z2c-2KP_GqU3nE0-43" style="edgeStyle=orthogonalEdgeStyle;rounded=0;orthogonalLoop=1;jettySize=auto;html=1;entryX=0.5;entryY=0;entryDx=0;entryDy=0;" edge="1" parent="1" source="jRtm2Z2c-2KP_GqU3nE0-29" target="jRtm2Z2c-2KP_GqU3nE0-12">
          <mxGeometry relative="1" as="geometry" />
        </mxCell>
        <mxCell id="jRtm2Z2c-2KP_GqU3nE0-29" value="Cold start path" style="rounded=0;whiteSpace=wrap;html=1;" vertex="1" parent="1">
          <mxGeometry x="680" y="290" width="120" height="60" as="geometry" />
        </mxCell>
        <mxCell id="jRtm2Z2c-2KP_GqU3nE0-44" value="Return recommendations with metadata" style="rounded=0;whiteSpace=wrap;html=1;" vertex="1" parent="1">
          <mxGeometry x="460" y="950" width="120" height="60" as="geometry" />
        </mxCell>
        <mxCell id="jRtm2Z2c-2KP_GqU3nE0-48" value="Yes" style="text;html=1;align=center;verticalAlign=middle;whiteSpace=wrap;rounded=0;" vertex="1" parent="1">
          <mxGeometry x="290" y="140" width="60" height="30" as="geometry" />
        </mxCell>
        <mxCell id="jRtm2Z2c-2KP_GqU3nE0-49" value="No" style="text;html=1;align=center;verticalAlign=middle;whiteSpace=wrap;rounded=0;" vertex="1" parent="1">
          <mxGeometry x="650" y="140" width="60" height="30" as="geometry" />
        </mxCell>
        <mxCell id="jRtm2Z2c-2KP_GqU3nE0-50" value="Yes" style="text;html=1;align=center;verticalAlign=middle;whiteSpace=wrap;rounded=0;" vertex="1" parent="1">
          <mxGeometry x="180" y="430" width="60" height="30" as="geometry" />
        </mxCell>
        <mxCell id="jRtm2Z2c-2KP_GqU3nE0-52" value="No" style="text;html=1;align=center;verticalAlign=middle;whiteSpace=wrap;rounded=0;" vertex="1" parent="1">
          <mxGeometry x="320" y="430" width="60" height="30" as="geometry" />
        </mxCell>
        <mxCell id="jRtm2Z2c-2KP_GqU3nE0-53" value="Yes" style="text;html=1;align=center;verticalAlign=middle;whiteSpace=wrap;rounded=0;" vertex="1" parent="1">
          <mxGeometry x="630" y="415" width="60" height="30" as="geometry" />
        </mxCell>
        <mxCell id="jRtm2Z2c-2KP_GqU3nE0-54" value="No" style="text;html=1;align=center;verticalAlign=middle;whiteSpace=wrap;rounded=0;" vertex="1" parent="1">
          <mxGeometry x="770" y="415" width="60" height="30" as="geometry" />
        </mxCell>
        <mxCell id="jRtm2Z2c-2KP_GqU3nE0-55" value="" style="rounded=0;whiteSpace=wrap;html=1;fillColor=none;" vertex="1" parent="1">
          <mxGeometry x="1000" y="60" width="180" height="680" as="geometry" />
        </mxCell>
        <mxCell id="jRtm2Z2c-2KP_GqU3nE0-56" value="Initialisation" style="text;html=1;align=center;verticalAlign=middle;whiteSpace=wrap;rounded=0;" vertex="1" parent="1">
          <mxGeometry x="1060" y="60" width="60" height="30" as="geometry" />
        </mxCell>
        <mxCell id="jRtm2Z2c-2KP_GqU3nE0-57" value="" style="rounded=0;whiteSpace=wrap;html=1;fillColor=none;" vertex="1" parent="1">
          <mxGeometry x="80" y="220" width="410" height="660" as="geometry" />
        </mxCell>
        <mxCell id="jRtm2Z2c-2KP_GqU3nE0-58" value="Personalised path" style="text;html=1;align=center;verticalAlign=middle;whiteSpace=wrap;rounded=0;" vertex="1" parent="1">
          <mxGeometry x="130" y="220" width="100" height="30" as="geometry" />
        </mxCell>
        <mxCell id="jRtm2Z2c-2KP_GqU3nE0-59" value="" style="rounded=0;whiteSpace=wrap;html=1;fillColor=none;" vertex="1" parent="1">
          <mxGeometry x="535" y="220" width="410" height="660" as="geometry" />
        </mxCell>
        <mxCell id="jRtm2Z2c-2KP_GqU3nE0-60" value="Cold start path" style="text;html=1;align=center;verticalAlign=middle;whiteSpace=wrap;rounded=0;" vertex="1" parent="1">
          <mxGeometry x="560" y="220" width="100" height="30" as="geometry" />
        </mxCell>
        <mxCell id="jRtm2Z2c-2KP_GqU3nE0-61" value="" style="rounded=0;whiteSpace=wrap;html=1;fillColor=none;" vertex="1" parent="1">
          <mxGeometry x="-240" y="350" width="180" height="410" as="geometry" />
        </mxCell>
        <mxCell id="jRtm2Z2c-2KP_GqU3nE0-62" value="Feedback handling" style="text;html=1;align=center;verticalAlign=middle;whiteSpace=wrap;rounded=0;" vertex="1" parent="1">
          <mxGeometry x="-210" y="350" width="120" height="30" as="geometry" />
        </mxCell>
      </root>
    </mxGraphModel>
  </diagram>
</mxfile>
